<!DOCTYPE svg PUBLIC "-//W3C//DTD SVG 1.1//EN" "http://www.w3.org/Graphics/SVG/1.1/DTD/svg11.dtd">
<svg xmlns="http://www.w3.org/2000/svg">
<metadata>Generated by Fontastic.me</metadata>
<defs>
<font id="foxportal" horiz-adv-x="512">
<font-face font-family="foxportal" units-per-em="512" ascent="480" descent="-32"/>
<missing-glyph horiz-adv-x="512"/>

<glyph unicode="b" d="M449 460l27-264c0-5-10-6-12 0l-10 43-47 17-52-47 44-26-41-5-23 13-20-18-40-5 37 35-53 29-21-4c14-1 41-14 42-31 2-17-15-29-21-31l-76-9c-18 3-25 12-26 23-1 11 7 23 13 28l-13 7-6-1 0-18-39-6 0-11 36 4 0-17-36-5 0-13-25-3 0 54-8 4 0 10 324 57 48-17-15 60-29 11-21-36 0-15-16-3 0 18-11 12-16 4c5-3 7-6 7-10 0-5-2-12-8-15l17-11-23-4-13 9 0-11-16-3 0 36-11 5 0-31c0-7-4-13-7-13l-24-4c-4 0-10 4-10 9l0 26-6 3 0-10-11-2 0-31-14-2 0 30-11-2 0 5-6 3 0-42-15 0-16 16 0-19-13-3 0 34-7 4-1-1 0-10-17-3 0-6 15 3 0-9-15-3 0-5 17 3 0-8-31-5 0 25-9 4c1-1 2-2 3-4l-8-7c-10 6-17-1-16-10 1-6 7-7 8-7 2 1 6 2 7 6l10-2c0-2-2-6-4-7l-26-4c-7 4-8 12-8 17 0 4 3 11 7 14l-9 4 0 9 328 73 25-9-9 37-21 10 0-32-12-3 0 25c0 5-9 5-9-1l0-25-13-3 0 50-58 25c9-12 13-27 12-39-1-21-21-50-36-54l-51-12c-38 2-46 31-45 53 0 6 2 12 4 18l-13 5c3-4 11-24-3-40l-34-37 43 9 0-19-97-22 0 11 62 68c7 8 4 13 2 15-2 2-24 9-32-16l-31-7c1 13 15 44 45 51 14 5 28 1 32 0l29-13c12 24 36 39 53 43 18 5 32 3 45-1l73-32 0 20 15 3 32-14-14 58-301 0-54-276c-1-6-11-5-11 0l13 276-48 0 0-386 23 3 0 59c0 7 7 8 12 8 4 0 11-1 11-8l0-57 24 4c-7 4-13 13-13 24 0 15 16 29 33 31l318 39 56-21 0 1c0 7 7 8 12 8 5 0 11 0 11-8l0-51 23-2 0 356z m-114-80l13 3 0-11 12 2 0-14-12-2 0-26-13-3z m-284-217c-2-2-7-9-17-7-9 1-12 10-12 14 0 3 0 5 4 5l24-4c3-1 3-6 1-8z m437 22c0-3-2-12-11-14-11-1-16 5-17 7-2 3-3 7 1 8l24 4c3 0 4-1 3-5z m-80-21l-242-27 301-30 0 37z m-74 57l12 11-32 7-9-1z m-147-35c2-10 18-14 34-12 17 2 29 14 28 22-2 8-12 13-34 11-14-3-30-12-28-21z m76 214c-15-2-37-12-40-38-3-26 24-29 36-26 13 2 36 15 34 40-1 25-23 25-30 24z m121-21c2 4 11 6 18 3l22-10-5 23-35 15z m-106-118c1 0 5 2 5 7l0 21-10 5 0-29c0-4 3-5 5-4z m-82 8l-20 4 20-19z m132 25l-3-1 0-9 4 1c4 1 6 4 6 6 0 1-2 4-7 3z m57 15l-19 4 13-13z m-290-179c-19-3-26-18-26-27 1-16 19-21 21-22 3-1 4-4-1-5l-87-10 0-13 510 0 0 39-399 40z"/>
<glyph unicode="c" d="M149 512l-45-44 215-215-209-208 44-45 253 253z"/>
<glyph unicode="d" d="M500 73l-186 186 186 187-53 53-186-186-187 186-53-53 186-187-186-186 53-53 187 186 186-186z"/>
<glyph unicode="e" d="M29 287c4 0 8 0 11-1 3-1 6-3 9-5 2-1 4-4 5-7 2-3 3-7 3-11l0-15c0-4-1-7-3-10-1-3-3-6-6-8-3-2-6-3-9-4-4-1-7-2-11-2l-28 0 0 63z m14-26c0 2 0 5-1 6-1 2-2 4-3 5-1 1-3 2-5 3-1 0-3 1-5 1l-15 0 0-40 14 0c2 0 4 0 6 1 1 0 3 1 4 2 2 1 3 3 4 5 1 2 1 4 1 7z m391 26l13 0 0-63-13 0 0 25-34 0 0-25-14 0 0 63 14 0 0-26 34 0z m50 0c4 0 8 0 11-1 4-1 7-3 9-5 2-1 4-4 6-7 1-3 2-7 2-11l0-15c0-4-1-7-2-10-2-3-4-6-7-8-2-2-5-3-9-4-3-1-7-2-11-2l-28 0 0 63z m14-26c0 2 0 5-1 6-1 2-2 4-3 5-1 1-3 2-4 3-2 0-4 1-6 1l-15 0 0-40 14 0c2 0 4 0 6 1 2 0 3 1 5 2 1 1 2 3 3 5 1 2 1 4 1 7l0 10z m-433 26l13 0 0-63-13 0z m56-28l26 0 0-30c-3-2-8-4-12-5-5-1-10-2-15-2-5 0-9 1-12 2-4 1-7 2-10 4-3 2-5 4-6 7-2 3-3 6-3 10l0 19c0 4 1 7 3 10 1 3 4 5 6 7 3 2 7 4 10 5 4 1 8 1 12 1 5 0 10 0 14-1 4-2 8-3 11-5l-5-10c-2 1-5 2-8 3-4 1-7 2-11 2-3 0-5-1-7-1-2-1-4-1-6-3-1-1-3-2-4-4-1-1-1-3-1-6l0-15c0-2 0-4 1-6 1-2 2-3 4-4 1-1 3-2 5-3 2 0 4 0 7 0 2 0 5 0 7 0 2 1 4 1 7 2l0 12-13 0z m35 28l14 0 0-63-14 0z m22-12l0 12 59 0 0-12-23 0 0-51-14 0 0 51z m92 12l25-63-16 0-5 14-24 0-5-14-15 0 25 63z m2-38l-10 25-9-25z m42 38l0-51 37 0 0-12-50 0 0 63z"/>
<glyph unicode="f" d="M511 373l-44 44-214-214-209 208-44-44 253-253z"/>
<glyph unicode="g" d="M36 510c0-135 0-271 0-406 111 0 222 0 333 0 0 135 0 271 0 406-111 0-222 0-333 0z m314-387c-98 0-197 0-295 0 0 123 0 246 0 369 98 0 197 0 295 0 0-123 0-246 0-369z m130 313c0-141 0-283 0-424-111 0-222 0-333 0 0 18 0 37 0 55 6 0 12 0 19 0 0-12 0-24 0-37 98 0 197 0 295 0 0 129 0 259 0 388-18 0-37 0-55 0 0 6 0 12 0 18 24 0 49 0 74 0z"/>
<glyph unicode="h" d="M361 343l-72 0 0 52c0 20 11 24 20 24 8 0 51 0 51 0l0 87-71 0c-78 0-95-65-95-106l0-57-45 0 0-90 45 0c0-114 0-252 0-252l94 0c0 0 0 139 0 252l64 0 9 90z"/>
<glyph unicode="i" d="M246 476c4-2 9-6 14-11 5-5 10-11 14-18 5-7 9-15 12-25 3-9 5-20 5-33-1-23-6-41-16-55-5-6-10-13-15-18-6-6-13-12-19-17-4-4-8-9-11-14-4-5-6-11-6-18 0-7 2-12 6-17 3-4 7-7 10-11l22-17c14-11 26-24 36-37 10-14 15-31 15-53 0-31-14-59-41-83-29-25-71-38-125-38-46 0-80 10-102 28-23 18-34 39-34 63 0 12 3 25 11 40 7 14 20 27 39 38 21 12 43 20 66 24 23 3 42 5 57 6-5 6-9 12-12 19-5 7-7 15-7 24 0 6 1 11 3 15 1 4 2 7 4 11-8-1-15-2-21-2-35 1-61 11-80 33-19 19-28 42-28 68 0 32 13 60 40 86 19 15 38 25 58 29 20 4 38 6 55 6l131 0-41-23z m25-369c0 16-5 30-16 42-11 12-29 26-53 42-4 1-9 1-15 1-3 1-12 0-25-1-14-2-28-5-42-9-3-2-8-3-14-6-6-3-12-6-18-11-6-6-11-12-15-20-5-8-7-18-7-29 0-23 10-41 31-56 20-15 46-22 81-23 30 1 54 7 70 20 16 13 23 30 23 50z m-90 188c17 0 31 6 43 18 5 8 9 17 10 25 1 9 2 16 2 22 0 25-7 51-20 76-6 13-14 23-24 30-11 8-22 12-36 12-17 0-32-7-44-21-10-14-14-30-14-48 0-23 7-47 21-72 6-12 15-22 26-30 10-8 22-12 36-12z m322 9l-64 0 0 63-32 0 0-63-65 0 0-32 65 0 0-63 32 0 0 63 64 0z"/>
<glyph unicode="j" d="M18 465l486 0 0-68-486 0z m0-176l486 0 0-67-486 0z m0-175l486 0 0-67-486 0z"/>
<glyph unicode="k" d="M505 69l-135 129c25 32 39 70 39 112 0 104-88 188-196 188-109 0-196-84-196-188 0-104 87-188 196-188 32 0 63 8 90 21l140-134z m-423 241c0 70 59 126 131 126 72 0 131-56 131-126 0-69-59-125-131-125-72 0-131 56-131 125z"/>
<glyph unicode="l" d="M272 512l0-118 109 0 0-91-109 0 0-131c0-30 0-47 3-55 2-9 10-17 17-22 11-7 23-11 36-11 24 0 48 9 71 26l0-81c-20-10-38-18-54-22-17-4-34-6-53-6-22 0-34 3-51 9-17 6-31 14-42 25-12 11-20 23-25 35-4 12-6 30-6 53l0 180-64 0 0 72c18 6 40 16 53 28 13 12 24 27 31 44 8 17 14 39 17 65l67 0z"/>
<glyph unicode="m" d="M513 288l-225 0 0 224-64 0 0-224-224 0 0-64 224 0 0-225 64 0 0 225 225 0z"/>
<glyph unicode="n" d="M512 403c-18-8-38-13-60-16 22 13 39 33 46 56-20-11-42-20-66-24-19 19-46 32-76 32-58 0-105-46-105-102 0-8 1-16 3-23-87 4-164 45-216 106-9-15-14-32-14-51 0-35 19-66 47-84-18 0-34 5-48 12 0 0 0-1 0-1 0-49 36-90 84-100-9-2-18-3-27-3-7 0-14 1-20 2 13-41 52-70 98-71-36-27-81-43-130-43-9 0-17 0-25 1 46-29 101-46 160-46 192 0 298 155 298 289 0 5-1 9-1 14 21 14 38 32 52 52z"/>
<glyph unicode="o" d="M104 253l253-253 44 45-208 208 214 215-44 44z"/>
<glyph unicode="p" d="M256 507c-139 0-252-113-252-252 0-139 113-251 252-251 139 0 252 112 252 251 0 139-113 252-252 252z m-11-50l0-98c-23 1-45 5-65 13 15 32 37 61 65 85z m0-120l0-71-92 0c1 30 7 59 18 86 23-9 48-14 74-15z m0-93l0-70c-26-1-51-7-74-16-11 28-17 57-18 86z m0-92l0-98c-28 24-50 53-65 85 20 7 42 12 65 13z m22-98l0 98c23-1 45-6 66-13-16-32-38-61-66-85z m0 120l0 70 92 0c-1-29-7-58-17-86-24 9-49 15-75 16z m0 92l0 71c26 1 51 6 75 15 10-27 16-56 17-86z m0 93l0 98c28-24 50-53 66-85-21-8-43-12-66-13z m29 100c38-7 72-25 100-50-14-11-28-21-43-28-15 29-34 55-57 78z m-137-78c-15 7-29 17-43 28 28 25 62 43 100 50-23-23-42-49-57-78z m-9-20c-11-30-18-62-19-95l-82 0c2 49 21 93 52 127 15-13 32-23 49-32z m-19-117c1-33 8-64 19-94-17-9-34-20-49-33-31 35-50 79-52 127z m28-114c15-29 34-56 57-79-38 8-72 26-100 51 14 11 28 20 43 28z m194 0c15-8 29-17 43-28-28-25-62-43-100-51 23 23 42 50 57 79z m9 20c11 30 18 61 19 94l82 0c-2-48-21-92-52-127-15 13-32 24-49 33z m19 116c-1 33-8 65-19 95 17 9 34 19 49 32 31-34 50-78 52-127z"/>
<glyph unicode="r" d="M255 406l-250-250 44-44 207 207 212-213 44 44z"/>
<glyph unicode="q" d="M153 9l0 83 41 0 0-42 247 0 0 289-41 0 0 41 82 0 0-371z m-123 124l0 371 329 0 0-371-329 0z m288 330l-247 0 0-289 247 0z"/>
<glyph unicode="s" d="M248 459c-74 0-135-61-135-137 0-25 10-51 10-51 4-9 15-29 20-38l96-164c5-9 13-9 18 0l97 164c5 9 15 29 19 38 0 0 11 26 11 51 0 76-61 137-136 137z m0-219c-44 0-80 36-80 81 0 45 36 82 80 82 44 0 80-37 80-82 0-45-36-81-80-81z"/>
<glyph unicode="a" d="M331 422l16-16-150-150 150-150-16-16-166 166z"/>
<glyph unicode="u" d="M181 422l-16-16 150-150-150-150 16-16 166 166z"/>
<glyph unicode="u" d="M347 358l10 2 0 11-10-3 0 12-11-3 0-49 11 3z m126-186c6 2 11 9 10 16 0 1 0 2-4 2-7-2-15-3-22-4-2-1-3-2-3-4 3-7 9-12 19-10z m-473 292l0-416 512 0 0 416z m420-93l-20 8c-3 2-8 3-11 3-3 0-6-1-8-4l0 32 34-16z m-366 86l-12-269c0-3 1-5 4-6 2 0 6 1 7 4l52 271 295 0 13-58-33 16-12-5 0-18-5 2-61 26c-20 8-47 9-66-3-14-7-28-22-36-36-18 6-32 19-52 16-19-3-37-16-45-33-3-7-4-12-5-20l30 7c0 3 2 8 6 12 6 5 12 8 20 6 2-1 5-2 6-5 3-8-6-15-14-23l-49-55 0-13 93 22 0 19-38-8c4 11 38 31 38 59 0 4 0 8-2 13l-1 3 11-5-1-3c-5-17-4-38 7-51 11-11 25-17 39-15l44 10c24 16 38 39 35 67-1 8-4 15-8 22l-1 2-1 1 5-1 51-22 0-51 12 3 0 27c1 2 4 4 6 4 4 1 2-4 2-8l0-21 12 2 0 33 22-10 9-38-25 10-320-71 0-10 8-3c-1 0-1-1-2-2-4-5-5-14-3-20 2-4 4-8 8-10l24 4c2 2 4 5 5 8l-10 4c-2-3-4-5-6-6-2 0-5 0-6 1-3 2-4 5-3 9 0 3 2 5 5 7 3 1 6 0 9-2l9 7c-1 2-1 2-3 5l8-3 0-28 30 5 0 8-15-3 0 5 14 3 0 10-14-2 0 5 16 3 0 10 8-2 0-35 12 2 0 18 17-15 14 2 0 40 5-1 0-10 12 3 0-29 13 3 0 29 11 2 0 11 5-1 0-24c0-9 4-13 12-13l21 4c6 5 7 9 7 20l0 23 10-3 0-37 16 3 0 11 16-8 21 3-17 12c4 4 6 8 6 13 0 5-2 8-4 10l13-4 10-10 0-19 17 3 0 19 20 30 30-11 13-57-42 17-319-55 0-9 7-5 0-52 25 3 0 11 34 5 0 18-34-5 0 11 37 6 0 19 19-7c-6-6-10-11-12-18-2-6-3-13 4-23 4-4 11-10 21-9l75 9c9 5 18 12 18 25 0 15-9 22-21 29-6 3-10 5-15 7l15 3 52-29-35-34 38 5 19 17 22-12 39 4-40 26 50 44 47-17 10-43c1-2 3-3 5-2 4 0 4 4 4 7l-26 258 60 0 0-353-22 3 0 55c-4 6-12 7-18 5-2-1-4-2-5-4-1-1 1-5-2-4-18 6-34 13-52 19l-9-1-222-26-82-9c-12-3-25-13-28-25-3-11 2-22 10-30l-22-3 0 59c0 3-5 6-12 6-5 0-10-2-10-7l0-61-24-4 0 380z m232-105c-11-13-25-20-41-18-9 2-19 9-21 18-3 14 4 26 13 35 10 8 21 13 34 11 8-1 15-7 19-14 5-10 2-23-4-32z m95-43l-5-8-10 10z m-49-19c0-3-3-4-9-4l0 7c3 1 9 0 9-3z m-50 0l0-23c0-3-2-5-6-5-2 0-3 2-3 3l0 29z m-84-20l0-13-19 19z m145-38l-10-9-26 17z m-94-33c2-10-10-16-15-19-13-5-42-6-45 8-1 8 8 15 20 19 12 4 38 3 40-8z m211-53l0-36-286 31 228 23z m-453-91l0 14 87 12c2 1 7 1 5 2-5 2-7 3-10 5-7 3-14 9-15 16-2 11 4 20 12 25 10 7 28 8 41 6l378-42 0-38z m460 22l4 0 0-15 3 0 0 15 4 0 0 2-11 0z m22-5l0-1c0-1 0-3-1-4l0-2 0 0 0 1c0 1 0 2 0 3-1 1-1 2-1 3l0 1-2 6-4 0 0-17 3 0-1 10c0 1 0 3 0 5l0 0 0 0c1-4 3-11 4-15l2 0 2 9 1 1c0 2 1 4 1 5l0 0c0-5-1-10 0-15l2 0 0 17-4 0z m-444 87c6 0 11 4 13 9 1 2 3 5 0 6-8 2-17 3-26 5-3 0-2-7 0-12 3-6 8-8 13-8z"/>
<glyph unicode="v" d="M181 422l-16-16 150-150-150-150 16-16 166 166z"/>
</font>
</defs>
</svg>
